# xmcd
#
# Track frame offsets: 
#        182
#        15680
#        29435
#        47825
#        63267
#        78065
#        96670
#        119107
#        133000
#        149410
#        162392
#        174715
#
# Disc length: 2557 seconds
#
# Revision: 2
# Processed by: cddbd v1.5.1PL0 Copyright (c) Steve Scherf et al.
# Submitted via: ExactAudioCopy v0.95a5
#
DISCID=ad09fb0c
DTITLE=Various Artist - New Country October 1995
DYEAR=1995
DGENRE=Country
TTITLE0=Maura O'Connell/Hit The Ground Runnin'
TTITLE1=Chris Gaffney/Loser's Paradise
TTITLE2=High Strung/Since You've Been Gone
TTITLE3=Don Williams/Games People Play
TTITLE4=Ron Wallace/I'm Listening Now
TTITLE5=Marcus Hummon/Bless The Broken Road
TTITLE6=Pete Anderson/Working Class
TTITLE7=Jim Matt/Better Place To Live
TTITLE8=Ellis Paul/All Things Being The Same
TTITLE9=Eddy Lawrence/Wanted
TTITLE10=Andy Brown/High Plains Drifter
TTITLE11=Kevin Welch/Life Down Here On Earth
EXTD=
EXTT0=MAURA O'CONNELL
EXTT1=CHRIS GAFFNEY
EXTT2=HIGH STRUNG
EXTT3=DON WILLIAMS
EXTT4=RON WALLACE
EXTT5=MARCUS HUMMON
EXTT6=PETE ANDERSON
EXTT7=JIM MATT
EXTT8=ELLIS PAUL
EXTT9=EDDY LAWRENCE
EXTT10=ANDY BROWN
EXTT11=KEVIN WELCH
PLAYORDER=
